# xmcd
#
# Track frame offsets:
#	150
#	11483
#	31623
#	65605
#	105578
#	130976
#	170134
#	215128
#	256607
#	276210
#	297286
#
# Disc length: 4480 seconds
#
# Revision: 1
# Processed by: cddbd v1.5.2PL0 Copyright (c) Steve Scherf et al.
# Submitted via: audiograbber 1.83.01
#
DISCID=9f117e0b
DTITLE=Grateful Dead - 80-10-09 Warfield Theatre, San Francisco CA
DYEAR=1900
DGENRE=
TTITLE0=Mama Tried
TTITLE1=Mexicali Blues
TTITLE2=Peggy-O
TTITLE3=Little Red Rooster
TTITLE4=Brown Eyed Women
TTITLE5=Looks Like Rain
TTITLE6=Tennessee Jed
TTITLE7=The Music Never Stopped
TTITLE8=Alabama Getaway
TTITLE9=Greatest Story Ever Told
TTITLE10=High Time
EXTD=
EXTT0=
EXTT1=
EXTT2=
EXTT3=
EXTT4=
EXTT5=
EXTT6=
EXTT7=
EXTT8=
EXTT9=
EXTT10=
PLAYORDER=
